<svg width="50" height="50" viewBox="0 0 50 50" fill="none" xmlns="http://www.w3.org/2000/svg">
<path d="M21.8555 4.64844L11.4596 8.5651C9.0638 9.46094 7.10547 12.2943 7.10547 14.8359V30.3151C7.10547 32.7734 8.73047 36.0026 10.7096 37.4818L19.668 44.1693C22.6055 46.3776 27.4388 46.3776 30.3763 44.1693L39.3346 37.4818C41.3138 36.0026 42.9388 32.7734 42.9388 30.3151V14.8359C42.9388 12.2734 40.9805 9.4401 38.5846 8.54427L28.1888 4.64844C26.418 4.0026 23.5846 4.0026 21.8555 4.64844Z" stroke="#2D2D2D" stroke-width="1.5" stroke-linecap="round" stroke-linejoin="round"/>
<path d="M35 25C35 30.52 30.52 35 25 35C19.48 35 15 30.52 15 25C15 19.48 19.48 15 25 15C30.52 15 35 19.48 35 25Z" stroke="#2D2D2D" stroke-width="1.5" stroke-linecap="round" stroke-linejoin="round"/>
<path d="M25.104 29.596C24.36 29.596 23.724 29.432 23.196 29.104C22.668 28.776 22.264 28.304 21.984 27.688C21.712 27.064 21.576 26.304 21.576 25.408C21.576 24.456 21.744 23.652 22.08 22.996C22.416 22.34 22.884 21.844 23.484 21.508C24.084 21.172 24.772 21.004 25.548 21.004C25.948 21.004 26.328 21.044 26.688 21.124C27.056 21.204 27.372 21.328 27.636 21.496L27.18 22.432C26.964 22.28 26.716 22.176 26.436 22.12C26.164 22.064 25.876 22.036 25.572 22.036C24.716 22.036 24.036 22.304 23.532 22.84C23.028 23.368 22.776 24.156 22.776 25.204C22.776 25.372 22.784 25.572 22.8 25.804C22.816 26.036 22.856 26.264 22.92 26.488L22.512 26.08C22.632 25.712 22.82 25.404 23.076 25.156C23.34 24.9 23.652 24.712 24.012 24.592C24.38 24.464 24.776 24.4 25.2 24.4C25.76 24.4 26.256 24.504 26.688 24.712C27.12 24.92 27.46 25.216 27.708 25.6C27.956 25.976 28.08 26.424 28.08 26.944C28.08 27.48 27.948 27.948 27.684 28.348C27.42 28.748 27.064 29.056 26.616 29.272C26.168 29.488 25.664 29.596 25.104 29.596ZM25.056 28.624C25.424 28.624 25.744 28.556 26.016 28.42C26.296 28.284 26.516 28.096 26.676 27.856C26.836 27.608 26.916 27.32 26.916 26.992C26.916 26.496 26.744 26.104 26.4 25.816C26.056 25.52 25.588 25.372 24.996 25.372C24.612 25.372 24.276 25.444 23.988 25.588C23.7 25.732 23.472 25.928 23.304 26.176C23.144 26.416 23.064 26.692 23.064 27.004C23.064 27.292 23.14 27.56 23.292 27.808C23.444 28.048 23.668 28.244 23.964 28.396C24.26 28.548 24.624 28.624 25.056 28.624Z" fill="#2D2D2D"/>
</svg>