<svg width="50" height="50" viewBox="0 0 50 50" fill="none" xmlns="http://www.w3.org/2000/svg">
<path d="M47.9132 37.3153C47.9549 38.8778 47.5382 40.357 46.7882 41.6278C46.3715 42.3778 45.809 43.0653 45.184 43.6278C43.7465 44.9612 41.8507 45.7737 39.7465 45.8362C36.7048 45.8987 34.0174 44.3362 32.5382 41.9404C31.7465 40.7112 31.2674 39.232 31.2465 37.6695C31.184 35.0445 32.3507 32.6695 34.2257 31.107C35.6423 29.9403 37.434 29.2112 39.3924 29.1695C43.9965 29.0653 47.809 32.7111 47.9132 37.3153Z" stroke="#2D2D2D" stroke-width="1.5" stroke-miterlimit="10" stroke-linecap="round" stroke-linejoin="round"/>
<path d="M6.60938 15.5035L25.0052 26.1493L43.276 15.566" stroke="#2D2D2D" stroke-width="1.5" stroke-linecap="round" stroke-linejoin="round"/>
<path d="M25.0098 45.0209V26.1251" stroke="#2D2D2D" stroke-width="1.5" stroke-linecap="round" stroke-linejoin="round"/>
<path d="M45.0221 19.1086V30.9003C45.0221 31.0045 45.0221 31.0877 45.0013 31.1919C43.543 29.9211 41.6679 29.1711 39.5846 29.1711C37.6263 29.1711 35.8138 29.8586 34.3763 31.0045C32.4596 32.5253 31.2513 34.8794 31.2513 37.5044C31.2513 39.0669 31.6887 40.5461 32.4596 41.7961C32.6471 42.1294 32.8763 42.442 33.1263 42.7336L29.3138 44.8378C26.9388 46.1712 23.0638 46.1712 20.6888 44.8378L9.56376 38.6711C7.04293 37.2753 4.98047 33.7753 4.98047 30.9003V19.1086C4.98047 16.2336 7.04293 12.7336 9.56376 11.3378L20.6888 5.17108C23.0638 3.83775 26.9388 3.83775 29.3138 5.17108L40.4388 11.3378C42.9596 12.7336 45.0221 16.2336 45.0221 19.1086Z" stroke="#2D2D2D" stroke-width="1.5" stroke-linecap="round" stroke-linejoin="round"/>
<path d="M43.0527 37.1598L43.4064 37.5132L43.7597 37.1597L43.4063 36.8062L43.0527 37.1598ZM36.9972 39.9376C36.9972 40.2137 37.221 40.4376 37.4972 40.4376C37.7733 40.4376 37.9972 40.2137 37.9972 39.9376L37.4972 39.9376L36.9972 39.9376ZM40.6304 39.5836L40.984 39.937L43.4064 37.5132L43.0527 37.1598L42.6991 36.8063L40.2767 39.2301L40.6304 39.5836ZM43.0527 37.1598L43.4063 36.8062L40.9839 34.3839L40.6304 34.7374L40.2768 35.091L42.6992 37.5133L43.0527 37.1598ZM43.0527 37.1598L43.0527 36.6598L40.275 36.6598L40.275 37.1598L40.275 37.6598L43.0527 37.6598L43.0527 37.1598ZM40.275 37.1598L40.275 36.6598C38.4647 36.6598 36.9972 38.1273 36.9972 39.9376L37.4972 39.9376L37.9972 39.9376C37.9972 38.6796 39.017 37.6598 40.275 37.6598L40.275 37.1598Z" fill="#2D2D2D"/>
</svg>