<svg width="50" height="50" viewBox="0 0 50 50" fill="none" xmlns="http://www.w3.org/2000/svg">
<path d="M39.5866 18.7526C39.5866 21.7735 38.6908 24.5443 37.1491 26.8568C34.8991 30.1902 31.3366 32.5443 27.1908 33.1485C26.4824 33.2735 25.7533 33.336 25.0033 33.336C24.2533 33.336 23.5241 33.2735 22.8158 33.1485C18.6699 32.5443 15.1074 30.1902 12.8574 26.8568C11.3158 24.5443 10.4199 21.7735 10.4199 18.7526C10.4199 10.6901 16.9408 4.16931 25.0033 4.16931C33.0658 4.16931 39.5866 10.6901 39.5866 18.7526Z" stroke="#2D2D2D" stroke-width="1.5" stroke-linecap="round" stroke-linejoin="round"/>
<path d="M44.2681 38.4796L40.8306 39.2921C40.0598 39.4796 39.4556 40.063 39.289 40.8338L38.5598 43.8963C38.164 45.563 36.039 46.063 34.9348 44.7505L24.9973 33.3338L15.0598 44.7713C13.9556 46.0838 11.8306 45.5837 11.4348 43.9171L10.7056 40.8546C10.5181 40.0837 9.91398 39.4796 9.16398 39.3129L5.72648 38.5005C4.14315 38.1255 3.58065 36.1462 4.72648 35.0004L12.8515 26.8754C15.1015 30.2088 18.664 32.563 22.8098 33.1671C23.5181 33.2921 24.2473 33.3546 24.9973 33.3546C25.7473 33.3546 26.4765 33.2921 27.1848 33.1671C31.3306 32.563 34.8931 30.2088 37.1431 26.8754L45.2681 35.0004C46.414 36.1254 45.8515 38.1046 44.2681 38.4796Z" stroke="#2D2D2D" stroke-width="1.5" stroke-linecap="round" stroke-linejoin="round"/>
<path d="M26.2052 12.4557L27.4344 14.914C27.601 15.2473 28.0385 15.5807 28.4344 15.6432L30.6635 16.0182C32.0802 16.2473 32.4135 17.289 31.3927 18.3098L29.6635 20.039C29.3719 20.3307 29.2052 20.8932 29.3094 21.3099L29.8094 23.4557C30.2052 25.1432 29.3094 25.8098 27.8094 24.914L25.726 23.6848C25.351 23.4557 24.726 23.4557 24.351 23.6848L22.2677 24.914C20.7677 25.789 19.8719 25.1432 20.2677 23.4557L20.7677 21.3099C20.851 20.914 20.7052 20.3307 20.4135 20.039L18.6844 18.3098C17.6635 17.289 17.9969 16.2682 19.4135 16.0182L21.6427 15.6432C22.0177 15.5807 22.4552 15.2473 22.6219 14.914L23.851 12.4557C24.4552 11.1224 25.5385 11.1224 26.2052 12.4557Z" stroke="#2D2D2D" stroke-width="1.5" stroke-linecap="round" stroke-linejoin="round"/>
</svg>