<svg width="50" height="50" viewBox="0 0 50 50" fill="none" xmlns="http://www.w3.org/2000/svg">
<path d="M4.17188 18.7533V13.5449C4.17188 8.35742 8.35938 4.16992 13.5469 4.16992H18.7552" stroke="#2D2D2D" stroke-width="1.5" stroke-linecap="round" stroke-linejoin="round"/>
<path d="M31.25 4.16992H36.4583C41.6458 4.16992 45.8333 8.35742 45.8333 13.5449V18.7533" stroke="#2D2D2D" stroke-width="1.5" stroke-linecap="round" stroke-linejoin="round"/>
<path d="M45.8281 33.3301V36.4551C45.8281 41.6426 41.6406 45.8301 36.4531 45.8301H33.3281" stroke="#2D2D2D" stroke-width="1.5" stroke-linecap="round" stroke-linejoin="round"/>
<path d="M18.7552 45.8333H13.5469C8.35938 45.8333 4.17188 41.6458 4.17188 36.4583V31.25" stroke="#2D2D2D" stroke-width="1.5" stroke-linecap="round" stroke-linejoin="round"/>
<path d="M17.3 21.004C18.06 21.004 18.7 21.168 19.22 21.496C19.748 21.824 20.148 22.3 20.42 22.924C20.692 23.54 20.828 24.296 20.828 25.192C20.828 26.144 20.66 26.948 20.324 27.604C19.988 28.26 19.524 28.756 18.932 29.092C18.34 29.428 17.648 29.596 16.856 29.596C16.464 29.596 16.084 29.556 15.716 29.476C15.356 29.396 15.04 29.272 14.768 29.104L15.224 28.168C15.448 28.312 15.696 28.416 15.968 28.48C16.248 28.536 16.54 28.564 16.844 28.564C17.692 28.564 18.368 28.3 18.872 27.772C19.376 27.236 19.628 26.444 19.628 25.396C19.628 25.228 19.62 25.028 19.604 24.796C19.588 24.564 19.552 24.336 19.496 24.112L19.892 24.52C19.78 24.888 19.592 25.2 19.328 25.456C19.072 25.704 18.76 25.892 18.392 26.02C18.032 26.14 17.636 26.2 17.204 26.2C16.652 26.2 16.16 26.096 15.728 25.888C15.296 25.68 14.956 25.388 14.708 25.012C14.46 24.628 14.336 24.176 14.336 23.656C14.336 23.112 14.464 22.644 14.72 22.252C14.984 21.852 15.34 21.544 15.788 21.328C16.244 21.112 16.748 21.004 17.3 21.004ZM17.348 21.976C16.988 21.976 16.668 22.044 16.388 22.18C16.108 22.316 15.888 22.504 15.728 22.744C15.576 22.984 15.5 23.272 15.5 23.608C15.5 24.104 15.672 24.5 16.016 24.796C16.36 25.084 16.824 25.228 17.408 25.228C17.792 25.228 18.128 25.156 18.416 25.012C18.712 24.868 18.94 24.672 19.1 24.424C19.268 24.176 19.352 23.9 19.352 23.596C19.352 23.3 19.276 23.032 19.124 22.792C18.972 22.552 18.748 22.356 18.452 22.204C18.156 22.052 17.788 21.976 17.348 21.976ZM21.8503 29.5V28.684L25.2703 25.384C25.5743 25.096 25.7983 24.844 25.9423 24.628C26.0943 24.404 26.1943 24.2 26.2423 24.016C26.2983 23.824 26.3263 23.64 26.3263 23.464C26.3263 23.032 26.1743 22.692 25.8703 22.444C25.5663 22.196 25.1223 22.072 24.5383 22.072C24.0903 22.072 23.6863 22.148 23.3263 22.3C22.9663 22.444 22.6543 22.672 22.3903 22.984L21.5743 22.276C21.8943 21.868 22.3223 21.556 22.8583 21.34C23.4023 21.116 23.9983 21.004 24.6463 21.004C25.2303 21.004 25.7383 21.1 26.1703 21.292C26.6023 21.476 26.9343 21.744 27.1663 22.096C27.4063 22.448 27.5263 22.864 27.5263 23.344C27.5263 23.616 27.4903 23.884 27.4183 24.148C27.3463 24.412 27.2103 24.692 27.0103 24.988C26.8103 25.284 26.5223 25.616 26.1463 25.984L23.0983 28.924L22.8103 28.456H27.8863V29.5H21.8503ZM31.5849 29.596C30.9929 29.596 30.4169 29.504 29.8569 29.32C29.3049 29.136 28.8529 28.888 28.5009 28.576L29.0529 27.628C29.3329 27.892 29.6969 28.108 30.1449 28.276C30.5929 28.444 31.0689 28.528 31.5729 28.528C32.2129 28.528 32.7049 28.392 33.0489 28.12C33.3929 27.848 33.5649 27.484 33.5649 27.028C33.5649 26.716 33.4889 26.444 33.3369 26.212C33.1849 25.98 32.9209 25.804 32.5449 25.684C32.1769 25.556 31.6689 25.492 31.0209 25.492H29.1129L29.5569 21.1H34.2969V22.144H30.0009L30.6249 21.556L30.2769 25.024L29.6529 24.448H31.2729C32.1129 24.448 32.7889 24.556 33.3009 24.772C33.8129 24.988 34.1849 25.288 34.4169 25.672C34.6489 26.048 34.7649 26.484 34.7649 26.98C34.7649 27.46 34.6489 27.9 34.4169 28.3C34.1849 28.692 33.8329 29.008 33.3609 29.248C32.8969 29.48 32.3049 29.596 31.5849 29.596Z" fill="#2D2D2D"/>
</svg>