<svg width="28" height="28" viewBox="0 0 28 28" fill="none" xmlns="http://www.w3.org/2000/svg">
<path d="M6.26802 28.001H0.462818V9.30633H6.26802V28.001ZM3.36192 6.75624C1.50586 6.75624 -0.000198364 5.21819 -0.000198364 3.36212C-0.000198364 1.50605 1.50486 0 3.36192 0C5.21899 0 6.72404 1.50505 6.72404 3.36212C6.72404 5.21819 5.21799 6.75624 3.36192 6.75624ZM27.9948 28.001H22.2026V18.9007C22.2026 16.7316 22.1586 13.9505 19.1845 13.9505C16.1664 13.9505 15.7034 16.3066 15.7034 18.7447V28.001H9.90415V9.30633H15.4714V11.8564H15.5524C16.3274 10.3874 18.2205 8.83732 21.0446 8.83732C26.9198 8.83732 27.9998 12.7065 27.9998 17.7316V28.001H27.9948Z" fill="#A40303"/>
</svg>
