<svg width="29" height="28" viewBox="0 0 29 28" fill="none" xmlns="http://www.w3.org/2000/svg">
<path d="M14.4581 0C10.6523 0 10.178 0.0183773 8.68855 0.0813852C7.19299 0.154894 6.18136 0.386798 5.28875 0.733342C4.36813 1.09389 3.58404 1.57257 2.80956 2.35142C2.02984 3.12589 1.54678 3.90999 1.19149 4.8306C0.844944 5.72322 0.61304 6.73484 0.53953 8.2304C0.472147 9.72071 0.458145 10.1941 0.458145 14C0.458145 17.8059 0.476522 18.2802 0.53953 19.7696C0.61304 21.2608 0.844944 22.2768 1.19149 23.1694C1.55203 24.09 2.03072 24.8741 2.80956 25.6486C3.58404 26.4283 4.36813 26.9114 5.28875 27.2667C6.18136 27.6088 7.19736 27.8451 8.68855 27.9186C10.1789 27.986 10.6523 28 14.4581 28C18.264 28 18.7383 27.9816 20.2277 27.9186C21.7189 27.8451 22.7349 27.608 23.6275 27.2667C24.5482 26.9061 25.3323 26.4274 26.1067 25.6486C26.8864 24.8741 27.3695 24.0944 27.7248 23.1694C28.067 22.2768 28.3033 21.2608 28.3768 19.7696C28.4441 18.2793 28.4581 17.8059 28.4581 14C28.4581 10.1941 28.4398 9.71984 28.3768 8.2304C28.3033 6.73922 28.0661 5.71796 27.7248 4.8306C27.3643 3.90999 26.8856 3.12589 26.1067 2.35142C25.3323 1.5717 24.5525 1.08864 23.6275 0.733342C22.7349 0.386798 21.7189 0.154894 20.2277 0.0813852C18.7374 0.0140018 18.264 0 14.4581 0ZM14.4581 2.52031C18.1957 2.52031 18.642 2.53869 20.1192 2.6017C21.4818 2.66558 22.2239 2.89311 22.7166 3.08564C23.3738 3.34029 23.8332 3.64133 24.3303 4.13314C24.8177 4.62058 25.1187 5.08526 25.3734 5.74247C25.5659 6.23515 25.7934 6.97725 25.8573 8.33979C25.9203 9.81698 25.9387 10.2642 25.9387 14.0009C25.9387 17.7376 25.9203 18.1848 25.8521 19.662C25.7786 21.0245 25.551 21.7666 25.3594 22.2593C25.0942 22.9165 24.7984 23.3759 24.3101 23.873C23.8174 24.3604 23.3484 24.6615 22.6964 24.9161C22.2099 25.1086 21.4573 25.3362 20.0895 25.4C18.6044 25.4631 18.1669 25.4814 14.4196 25.4814C10.6724 25.4814 10.2357 25.4631 8.74893 25.3948C7.38639 25.3213 6.63467 25.0938 6.14198 24.9021C5.4769 24.637 5.02097 24.3412 4.53265 23.8529C4.03997 23.3602 3.72668 22.8911 3.48515 22.2392C3.28912 21.7526 3.0651 21 2.99246 19.6322C2.94258 18.1646 2.91895 17.7096 2.91895 13.9799C2.91895 10.2519 2.94258 9.79597 2.99246 8.31004C3.0651 6.94224 3.28912 6.1914 3.48515 5.70309C3.72668 5.03713 4.04084 4.58207 4.53265 4.08939C5.02009 3.60195 5.4769 3.28691 6.14198 3.04013C6.63467 2.84848 7.36801 2.62095 8.73581 2.55269C10.2209 2.49931 10.6584 2.48006 14.4004 2.48006L14.4581 2.52031ZM14.4581 6.81448C10.4843 6.81448 7.27087 10.0323 7.27087 14.0017C7.27087 17.9756 10.4887 21.189 14.4581 21.189C18.432 21.189 21.6454 17.9712 21.6454 14.0017C21.6454 10.0279 18.4276 6.81448 14.4581 6.81448ZM14.4581 18.6687C11.8783 18.6687 9.79119 16.5816 9.79119 14.0017C9.79119 11.4219 11.8783 9.33479 14.4581 9.33479C17.038 9.33479 19.1251 11.4219 19.1251 14.0017C19.1251 16.5816 17.038 18.6687 14.4581 18.6687ZM23.6153 6.52744C23.6153 7.45768 22.8583 8.20853 21.9325 8.20853C21.0022 8.20853 20.2514 7.45681 20.2514 6.52744C20.2514 5.60245 21.0075 4.84986 21.9325 4.84986C22.8574 4.84986 23.6153 5.60245 23.6153 6.52744Z" fill="#A40303"/>
</svg>
